<?xml version="1.0" encoding="UTF-8" standalone="no"?>
<!-- Created with Inkscape (http://www.inkscape.org/) -->

<svg
   xmlns:dc="http://purl.org/dc/elements/1.1/"
   xmlns:cc="http://creativecommons.org/ns#"
   xmlns:rdf="http://www.w3.org/1999/02/22-rdf-syntax-ns#"
   xmlns:svg="http://www.w3.org/2000/svg"
   xmlns="http://www.w3.org/2000/svg"
   xmlns:sodipodi="http://sodipodi.sourceforge.net/DTD/sodipodi-0.dtd"
   xmlns:inkscape="http://www.inkscape.org/namespaces/inkscape"
   sodipodi:docname="100_Navaid_NDB.svg"
   inkscape:version="0.92.4 (5da689c313, 2019-01-14)"
   id="svg4528"
   version="1.1"
   viewBox="0 0 13.229166 13.229167"
   height="50"
   width="50">
  <defs
     id="defs4522" />
  <sodipodi:namedview
     id="base"
     pagecolor="#ffffff"
     bordercolor="#666666"
     borderopacity="1.0"
     inkscape:pageopacity="0.0"
     inkscape:pageshadow="2"
     inkscape:zoom="11.313708"
     inkscape:cx="19.405104"
     inkscape:cy="20.047639"
     inkscape:document-units="mm"
     inkscape:current-layer="g5194"
     showgrid="true"
     units="px"
     inkscape:window-width="1366"
     inkscape:window-height="705"
     inkscape:window-x="1358"
     inkscape:window-y="-8"
     inkscape:window-maximized="1"
     showguides="true"
     inkscape:guide-bbox="true">
    <inkscape:grid
       type="xygrid"
       id="grid5073"
       spacingx="0.26458333"
       spacingy="0.26458333"
       dotted="false" />
    <sodipodi:guide
       position="6.6145829,6.6145832"
       orientation="0,1"
       id="guide5077"
       inkscape:locked="false" />
    <sodipodi:guide
       position="6.6145829,6.6145837"
       orientation="1,0"
       id="guide5079"
       inkscape:locked="false" />
    <sodipodi:guide
       position="1.3229166,11.90625"
       orientation="1,0"
       id="guide5081"
       inkscape:locked="false" />
    <sodipodi:guide
       position="11.906249,11.90625"
       orientation="1,0"
       id="guide5083"
       inkscape:locked="false" />
    <sodipodi:guide
       position="1.3229166,11.90625"
       orientation="0,1"
       id="guide5085"
       inkscape:locked="false" />
    <sodipodi:guide
       position="1.3229166,1.3229167"
       orientation="0,1"
       id="guide5087"
       inkscape:locked="false" />
  </sodipodi:namedview>
  <metadata
     id="metadata4525">
    <rdf:RDF>
      <cc:Work
         rdf:about="">
        <dc:format>image/svg+xml</dc:format>
        <dc:type
           rdf:resource="http://purl.org/dc/dcmitype/StillImage" />
        <dc:title />
      </cc:Work>
    </rdf:RDF>
  </metadata>
  <g
     inkscape:label="Layer 1"
     inkscape:groupmode="layer"
     id="layer1"
     transform="translate(0,-283.77082)">
    <g
       id="g4883"
       style="stroke-width:0.2;stroke-miterlimit:4;stroke-dasharray:none;stroke:none;stroke-opacity:1;fill:param(fill)#000000;fill-opacity:1" />
    <g
       id="g4960"
       style="stroke-width:0.2;stroke-miterlimit:4;stroke-dasharray:none;stroke:none;stroke-opacity:1;fill:param(fill)#000000;fill-opacity:1" />
    <g
       id="g5062"
       style="stroke-width:0.2;stroke-miterlimit:4;stroke-dasharray:none;stroke:none;stroke-opacity:1;fill:param(fill)#000000;fill-opacity:1" />
    <g
       id="g5194"
       style="stroke-width:0.2;stroke-miterlimit:4;stroke-dasharray:none;stroke:none;stroke-opacity:1;fill:param(fill)#000000;fill-opacity:1">
      <path
         id="path5381-7"
         style="color:#000000;clip-rule:nonzero;display:inline;overflow:visible;visibility:visible;opacity:1;isolation:auto;mix-blend-mode:normal;color-interpolation:sRGB;color-interpolation-filters:linearRGB;solid-color:#000000;solid-opacity:1;fill:param(fill)#000000;fill-opacity:1;fill-rule:evenodd;stroke:none;stroke-width:0.2;stroke-miterlimit:4;stroke-dasharray:none;stroke-opacity:1;color-rendering:auto;image-rendering:auto;shape-rendering:auto;text-rendering:auto;enable-background:accumulate"
         d="m 10.655647,289.37339 a 0.26458332,0.26458332 0 0 1 -0.264583,0.26458 0.26458332,0.26458332 0 0 1 -0.264583,-0.26458 0.26458332,0.26458332 0 0 1 0.264583,-0.26459 0.26458332,0.26458332 0 0 1 0.264583,0.26459 z m -0.390604,-0.94293 a 0.26458332,0.26458332 0 0 1 -0.264583,0.26458 0.26458332,0.26458332 0 0 1 -0.2645833,-0.26458 0.26458332,0.26458332 0 0 1 0.2645833,-0.26459 0.26458332,0.26458332 0 0 1 0.264583,0.26459 z m -0.6184667,-0.81275 a 0.26458332,0.26458332 0 0 1 -0.2645833,0.26458 0.26458332,0.26458332 0 0 1 -0.2645833,-0.26458 0.26458332,0.26458332 0 0 1 0.2645833,-0.26459 0.26458332,0.26458332 0 0 1 0.2645833,0.26459 z m -0.812818,-0.61839 a 0.26458332,0.26458332 0 0 1 -0.2645833,0.26458 0.26458332,0.26458332 0 0 1 -0.2645833,-0.26458 0.26458332,0.26458332 0 0 1 0.2645833,-0.26459 0.26458332,0.26458332 0 0 1 0.2645833,0.26459 z m -0.942972,-0.3905 a 0.26458332,0.26458332 0 0 1 -0.2645833,0.26458 0.26458332,0.26458332 0 0 1 -0.2645833,-0.26458 0.26458332,0.26458332 0 0 1 0.2645833,-0.26459 0.26458332,0.26458332 0 0 1 0.2645833,0.26459 z m -1.012034,-0.13732 a 0.26458332,0.26458332 0 0 1 -0.2645833,0.26458 0.26458332,0.26458332 0 0 1 -0.2645833,-0.26458 0.26458332,0.26458332 0 0 1 0.2645833,-0.26459 0.26458332,0.26458332 0 0 1 0.2645833,0.26459 z m -1.01201,0.13753 a 0.26458332,0.26458332 0 0 1 -0.2645833,0.26458 0.26458332,0.26458332 0 0 1 -0.2645833,-0.26458 0.26458332,0.26458332 0 0 1 0.2645833,-0.26459 0.26458332,0.26458332 0 0 1 0.2645833,0.26459 z m -0.942879,0.39071 a 0.26458332,0.26458332 0 0 1 -0.2645833,0.26458 0.26458332,0.26458332 0 0 1 -0.2645833,-0.26458 0.26458332,0.26458332 0 0 1 0.2645833,-0.26459 0.26458332,0.26458332 0 0 1 0.2645833,0.26459 z m -0.812678,0.61857 a 0.26458332,0.26458332 0 0 1 -0.2645833,0.26458 0.26458332,0.26458332 0 0 1 -0.2645833,-0.26458 0.26458332,0.26458332 0 0 1 0.2645833,-0.26459 0.26458332,0.26458332 0 0 1 0.2645833,0.26459 z m -0.618321,0.81286 a 0.26458332,0.26458332 0 0 1 -0.2645833,0.26459 0.26458332,0.26458332 0 0 1 -0.2645833,-0.26459 0.26458332,0.26458332 0 0 1 0.2645833,-0.26459 0.26458332,0.26458332 0 0 1 0.2645833,0.26459 z m -0.390381,0.94302 A 0.26458332,0.26458332 0 0 1 2.8379,289.63877 0.26458332,0.26458332 0 0 1 2.5733167,289.37419 0.26458332,0.26458332 0 0 1 2.8379,289.1096 a 0.26458332,0.26458332 0 0 1 0.2645833,0.26459 z m -0.137197,1.01205 a 0.26458332,0.26458332 0 0 1 -0.2645833,0.26458 0.26458332,0.26458332 0 0 1 -0.2645833,-0.26458 0.26458332,0.26458332 0 0 1 0.2645833,-0.26459 0.26458332,0.26458332 0 0 1 0.2645833,0.26459 z m 0.137086,1.012 a 0.26458332,0.26458332 0 0 1 -0.2645833,0.26458 0.26458332,0.26458332 0 0 1 -0.2645833,-0.26458 0.26458332,0.26458332 0 0 1 0.2645833,-0.26459 0.26458332,0.26458332 0 0 1 0.2645833,0.26459 z m 0.390138,0.9431 a 0.26458332,0.26458332 0 0 1 -0.2645833,0.26458 0.26458332,0.26458332 0 0 1 -0.2645833,-0.26458 0.26458332,0.26458332 0 0 1 0.2645833,-0.26459 0.26458332,0.26458332 0 0 1 0.2645833,0.26459 z m 0.61956,0.81204 a 0.26458332,0.26458332 0 0 1 -0.2645833,0.26458 0.26458332,0.26458332 0 0 1 -0.2645833,-0.26458 0.26458332,0.26458332 0 0 1 0.2645833,-0.26459 0.26458332,0.26458332 0 0 1 0.2645833,0.26459 z m 0.812232,0.61933 a 0.26458332,0.26458332 0 0 1 -0.2645833,0.26458 0.26458332,0.26458332 0 0 1 -0.2645833,-0.26458 0.26458332,0.26458332 0 0 1 0.2645833,-0.26459 0.26458332,0.26458332 0 0 1 0.2645833,0.26459 z m 0.943234,0.3898 a 0.26458332,0.26458332 0 0 1 -0.2645833,0.26458 0.26458332,0.26458332 0 0 1 -0.2645833,-0.26458 0.26458332,0.26458332 0 0 1 0.2645833,-0.26459 0.26458332,0.26458332 0 0 1 0.2645833,0.26459 z m 1.012044,0.13679 a 0.26458332,0.26458332 0 0 1 -0.2645833,0.26458 0.26458332,0.26458332 0 0 1 -0.2645833,-0.26458 0.26458332,0.26458332 0 0 1 0.2645833,-0.26459 0.26458332,0.26458332 0 0 1 0.2645833,0.26459 z m 1.012019,-0.137 a 0.26458332,0.26458332 0 0 1 -0.2645833,0.26458 0.26458332,0.26458332 0 0 1 -0.2645833,-0.26458 0.26458332,0.26458332 0 0 1 0.2645833,-0.26459 0.26458332,0.26458332 0 0 1 0.2645833,0.26459 z m 0.943139,-0.39002 a 0.26458332,0.26458332 0 0 1 -0.2645833,0.26458 0.26458332,0.26458332 0 0 1 -0.2645833,-0.26458 0.26458332,0.26458332 0 0 1 0.2645833,-0.26459 0.26458332,0.26458332 0 0 1 0.2645833,0.26459 z m 0.812124,-0.61947 a 0.26458332,0.26458332 0 0 1 -0.2645833,0.26458 0.26458332,0.26458332 0 0 1 -0.2645833,-0.26458 0.26458332,0.26458332 0 0 1 0.2645833,-0.26459 0.26458332,0.26458332 0 0 1 0.2645833,0.26459 z m 0.6193907,-0.81218 a 0.26458332,0.26458332 0 0 1 -0.264583,0.26458 0.26458332,0.26458332 0 0 1 -0.2645833,-0.26458 0.26458332,0.26458332 0 0 1 0.2645833,-0.26459 0.26458332,0.26458332 0 0 1 0.264583,0.26459 z m 0.389914,-0.94319 a 0.26458332,0.26458332 0 0 1 -0.264583,0.26458 0.26458332,0.26458332 0 0 1 -0.264583,-0.26458 0.26458332,0.26458332 0 0 1 0.264583,-0.26459 0.26458332,0.26458332 0 0 1 0.264583,0.26459 z m 0.136921,-1.01203 a 0.26458332,0.26458332 0 0 1 -0.264583,0.26458 0.26458332,0.26458332 0 0 1 -0.264583,-0.26458 0.26458332,0.26458332 0 0 1 0.264583,-0.26459 0.26458332,0.26458332 0 0 1 0.264583,0.26459 z m -0.659813,-10e-6 a 0.26458332,0.26458332 0 0 1 -0.2645827,0.26458 0.26458332,0.26458332 0 0 1 -0.264584,-0.26458 0.26458332,0.26458332 0 0 1 0.264584,-0.26459 0.26458332,0.26458332 0 0 1 0.2645827,0.26459 z m -0.1615627,-1.00478 a 0.26458332,0.26458332 0 0 1 -0.2645833,0.26458 0.26458332,0.26458332 0 0 1 -0.2645833,-0.26458 0.26458332,0.26458332 0 0 1 0.2645833,-0.26459 0.26458332,0.26458332 0 0 1 0.2645833,0.26459 z m -0.462965,-0.90569 a 0.26458332,0.26458332 0 0 1 -0.2645833,0.26458 0.26458332,0.26458332 0 0 1 -0.2645833,-0.26458 0.26458332,0.26458332 0 0 1 0.2645833,-0.26459 0.26458332,0.26458332 0 0 1 0.2645833,0.26459 z m -0.719107,-0.71911 a 0.26458332,0.26458332 0 0 1 -0.2645833,0.26458 0.26458332,0.26458332 0 0 1 -0.2645833,-0.26458 0.26458332,0.26458332 0 0 1 0.2645833,-0.26459 0.26458332,0.26458332 0 0 1 0.2645833,0.26459 z m -0.905696,-0.46296 a 0.26458332,0.26458332 0 0 1 -0.2645833,0.26458 0.26458332,0.26458332 0 0 1 -0.2645833,-0.26458 0.26458332,0.26458332 0 0 1 0.2645833,-0.26459 0.26458332,0.26458332 0 0 1 0.2645833,0.26459 z m -1.004778,-0.16157 a 0.26458332,0.26458332 0 0 1 -0.2645833,0.26458 0.26458332,0.26458332 0 0 1 -0.2645833,-0.26458 0.26458332,0.26458332 0 0 1 0.2645833,-0.26459 0.26458332,0.26458332 0 0 1 0.2645833,0.26459 z m -1.004777,0.16157 a 0.26458332,0.26458332 0 0 1 -0.2645833,0.26458 0.26458332,0.26458332 0 0 1 -0.2645833,-0.26458 0.26458332,0.26458332 0 0 1 0.2645833,-0.26459 0.26458332,0.26458332 0 0 1 0.2645833,0.26459 z m -0.905697,0.46296 a 0.26458332,0.26458332 0 0 1 -0.2645833,0.26458 0.26458332,0.26458332 0 0 1 -0.2645833,-0.26458 0.26458332,0.26458332 0 0 1 0.2645833,-0.26459 0.26458332,0.26458332 0 0 1 0.2645833,0.26459 z m -0.719106,0.71911 a 0.26458332,0.26458332 0 0 1 -0.2645833,0.26458 0.26458332,0.26458332 0 0 1 -0.2645833,-0.26458 0.26458332,0.26458332 0 0 1 0.2645833,-0.26459 0.26458332,0.26458332 0 0 1 0.2645833,0.26459 z m -0.462965,0.90569 a 0.26458332,0.26458332 0 0 1 -0.2645833,0.26458 0.26458332,0.26458332 0 0 1 -0.2645833,-0.26458 0.26458332,0.26458332 0 0 1 0.2645833,-0.26459 0.26458332,0.26458332 0 0 1 0.2645833,0.26459 z m -0.161564,1.00478 a 0.26458332,0.26458332 0 0 1 -0.2645833,0.26458 0.26458332,0.26458332 0 0 1 -0.2645833,-0.26458 0.26458332,0.26458332 0 0 1 0.2645833,-0.26459 0.26458332,0.26458332 0 0 1 0.2645833,0.26459 z m 0.161564,1.00478 a 0.26458332,0.26458332 0 0 1 -0.2645833,0.26458 0.26458332,0.26458332 0 0 1 -0.2645833,-0.26458 0.26458332,0.26458332 0 0 1 0.2645833,-0.26459 0.26458332,0.26458332 0 0 1 0.2645833,0.26459 z m 0.462965,0.9057 a 0.26458332,0.26458332 0 0 1 -0.2645833,0.26458 0.26458332,0.26458332 0 0 1 -0.2645833,-0.26458 0.26458332,0.26458332 0 0 1 0.2645833,-0.26459 0.26458332,0.26458332 0 0 1 0.2645833,0.26459 z m 0.719106,0.7191 a 0.26458332,0.26458332 0 0 1 -0.2645833,0.26458 0.26458332,0.26458332 0 0 1 -0.2645833,-0.26458 0.26458332,0.26458332 0 0 1 0.2645833,-0.26459 0.26458332,0.26458332 0 0 1 0.2645833,0.26459 z m 0.905697,0.46297 a 0.26458332,0.26458332 0 0 1 -0.2645833,0.26458 0.26458332,0.26458332 0 0 1 -0.2645833,-0.26458 0.26458332,0.26458332 0 0 1 0.2645833,-0.26459 0.26458332,0.26458332 0 0 1 0.2645833,0.26459 z m 1.004777,0.16156 a 0.26458332,0.26458332 0 0 1 -0.2645833,0.26458 0.26458332,0.26458332 0 0 1 -0.2645833,-0.26458 0.26458332,0.26458332 0 0 1 0.2645833,-0.26459 0.26458332,0.26458332 0 0 1 0.2645833,0.26459 z m 1.004778,-0.16156 a 0.26458332,0.26458332 0 0 1 -0.2645833,0.26458 0.26458332,0.26458332 0 0 1 -0.2645833,-0.26458 0.26458332,0.26458332 0 0 1 0.2645833,-0.26459 0.26458332,0.26458332 0 0 1 0.2645833,0.26459 z m 0.905696,-0.46297 a 0.26458332,0.26458332 0 0 1 -0.2645833,0.26458 0.26458332,0.26458332 0 0 1 -0.2645833,-0.26458 0.26458332,0.26458332 0 0 1 0.2645833,-0.26459 0.26458332,0.26458332 0 0 1 0.2645833,0.26459 z m 0.719107,-0.7191 a 0.26458332,0.26458332 0 0 1 -0.2645833,0.26458 0.26458332,0.26458332 0 0 1 -0.2645833,-0.26458 0.26458332,0.26458332 0 0 1 0.2645833,-0.26459 0.26458332,0.26458332 0 0 1 0.2645833,0.26459 z m 0.462965,-0.9057 a 0.26458332,0.26458332 0 0 1 -0.2645833,0.26458 0.26458332,0.26458332 0 0 1 -0.2645833,-0.26458 0.26458332,0.26458332 0 0 1 0.2645833,-0.26459 0.26458332,0.26458332 0 0 1 0.2645833,0.26459 z m -0.6952734,-1.99776 a 0.26458332,0.26458332 0 0 1 -0.2645833,0.26458 0.26458332,0.26458332 0 0 1 -0.2645833,-0.26458 0.26458332,0.26458332 0 0 1 0.2645833,-0.26459 0.26458332,0.26458332 0 0 1 0.2645833,0.26459 z m -0.562372,-0.84192 a 0.26458332,0.26458332 0 0 1 -0.2645833,0.26458 0.26458332,0.26458332 0 0 1 -0.2645833,-0.26458 0.26458332,0.26458332 0 0 1 0.2645833,-0.26459 0.26458332,0.26458332 0 0 1 0.2645833,0.26459 z m -0.841921,-0.56237 a 0.26458332,0.26458332 0 0 1 -0.2645833,0.26458 0.26458332,0.26458332 0 0 1 -0.2645833,-0.26458 0.26458332,0.26458332 0 0 1 0.2645833,-0.26459 0.26458332,0.26458332 0 0 1 0.2645833,0.26459 z m -0.99298,-0.19767 a 0.26458332,0.26458332 0 0 1 -0.2645833,0.26458 0.26458332,0.26458332 0 0 1 -0.2645833,-0.26458 0.26458332,0.26458332 0 0 1 0.2645833,-0.26459 0.26458332,0.26458332 0 0 1 0.2645833,0.26459 z m -0.992979,0.19767 a 0.26458332,0.26458332 0 0 1 -0.2645833,0.26458 0.26458332,0.26458332 0 0 1 -0.2645833,-0.26458 0.26458332,0.26458332 0 0 1 0.2645833,-0.26459 0.26458332,0.26458332 0 0 1 0.2645833,0.26459 z m -0.841921,0.56237 a 0.26458332,0.26458332 0 0 1 -0.2645833,0.26458 0.26458332,0.26458332 0 0 1 -0.2645833,-0.26458 0.26458332,0.26458332 0 0 1 0.2645833,-0.26459 0.26458332,0.26458332 0 0 1 0.2645833,0.26459 z m -0.562372,0.84192 a 0.26458332,0.26458332 0 0 1 -0.2645833,0.26458 0.26458332,0.26458332 0 0 1 -0.2645833,-0.26458 0.26458332,0.26458332 0 0 1 0.2645833,-0.26459 0.26458332,0.26458332 0 0 1 0.2645833,0.26459 z m -0.197669,0.99298 a 0.26458332,0.26458332 0 0 1 -0.2645833,0.26458 0.26458332,0.26458332 0 0 1 -0.2645833,-0.26458 0.26458332,0.26458332 0 0 1 0.2645833,-0.26459 0.26458332,0.26458332 0 0 1 0.2645833,0.26459 z m 0.197669,0.99298 a 0.26458332,0.26458332 0 0 1 -0.2645833,0.26458 0.26458332,0.26458332 0 0 1 -0.2645833,-0.26458 0.26458332,0.26458332 0 0 1 0.2645833,-0.26459 0.26458332,0.26458332 0 0 1 0.2645833,0.26459 z m 0.562372,0.84192 a 0.26458332,0.26458332 0 0 1 -0.2645833,0.26458 0.26458332,0.26458332 0 0 1 -0.2645833,-0.26458 0.26458332,0.26458332 0 0 1 0.2645833,-0.26459 0.26458332,0.26458332 0 0 1 0.2645833,0.26459 z m 0.841921,0.56237 a 0.26458332,0.26458332 0 0 1 -0.2645833,0.26458 0.26458332,0.26458332 0 0 1 -0.2645833,-0.26458 0.26458332,0.26458332 0 0 1 0.2645833,-0.26459 0.26458332,0.26458332 0 0 1 0.2645833,0.26459 z m 0.992979,0.19767 a 0.26458332,0.26458332 0 0 1 -0.2645833,0.26458 0.26458332,0.26458332 0 0 1 -0.2645833,-0.26458 0.26458332,0.26458332 0 0 1 0.2645833,-0.26459 0.26458332,0.26458332 0 0 1 0.2645833,0.26459 z m 0.99298,-0.19767 a 0.26458332,0.26458332 0 0 1 -0.2645833,0.26458 0.26458332,0.26458332 0 0 1 -0.2645833,-0.26458 0.26458332,0.26458332 0 0 1 0.2645833,-0.26459 0.26458332,0.26458332 0 0 1 0.2645833,0.26459 z m 0.841921,-0.56237 a 0.26458332,0.26458332 0 0 1 -0.2645833,0.26458 0.26458332,0.26458332 0 0 1 -0.2645833,-0.26458 0.26458332,0.26458332 0 0 1 0.2645833,-0.26459 0.26458332,0.26458332 0 0 1 0.2645833,0.26459 z m 0.562372,-0.84192 a 0.26458332,0.26458332 0 0 1 -0.2645833,0.26458 0.26458332,0.26458332 0 0 1 -0.2645833,-0.26458 0.26458332,0.26458332 0 0 1 0.2645833,-0.26459 0.26458332,0.26458332 0 0 1 0.2645833,0.26459 z m 0.1976694,-0.99298 a 0.26458332,0.26458332 0 0 1 -0.2645837,0.26458 0.26458332,0.26458332 0 0 1 -0.2645833,-0.26458 0.26458332,0.26458332 0 0 1 0.2645833,-0.26459 0.26458332,0.26458332 0 0 1 0.2645837,0.26459 z m -0.658049,0 a 0.26458332,0.26458332 0 0 1 -0.2645833,0.26458 0.26458332,0.26458332 0 0 1 -0.2645833,-0.26458 0.26458332,0.26458332 0 0 1 0.2645833,-0.26459 0.26458332,0.26458332 0 0 1 0.2645833,0.26459 z m -0.260755,-0.96764 a 0.26458332,0.26458332 0 0 1 -0.2645833,0.26458 0.26458332,0.26458332 0 0 1 -0.2645833,-0.26458 0.26458332,0.26458332 0 0 1 0.2645833,-0.26459 0.26458332,0.26458332 0 0 1 0.2645833,0.26459 z m -0.7085,-0.70849 a 0.26458332,0.26458332 0 0 1 -0.2645833,0.26458 0.26458332,0.26458332 0 0 1 -0.2645833,-0.26458 0.26458332,0.26458332 0 0 1 0.2645833,-0.26459 0.26458332,0.26458332 0 0 1 0.2645833,0.26459 z m -0.967643,-0.26075 a 0.26458332,0.26458332 0 0 1 -0.2645833,0.26458 0.26458332,0.26458332 0 0 1 -0.2645833,-0.26458 0.26458332,0.26458332 0 0 1 0.2645833,-0.26459 0.26458332,0.26458332 0 0 1 0.2645833,0.26459 z m -0.967641,0.26075 a 0.26458332,0.26458332 0 0 1 -0.2645833,0.26458 0.26458332,0.26458332 0 0 1 -0.2645833,-0.26458 0.26458332,0.26458332 0 0 1 0.2645833,-0.26459 0.26458332,0.26458332 0 0 1 0.2645833,0.26459 z m -0.708497,0.7085 a 0.26458332,0.26458332 0 0 1 -0.2645833,0.26458 0.26458332,0.26458332 0 0 1 -0.2645833,-0.26458 0.26458332,0.26458332 0 0 1 0.2645833,-0.26459 0.26458332,0.26458332 0 0 1 0.2645833,0.26459 z m -0.260749,0.96764 a 0.26458332,0.26458332 0 0 1 -0.2645833,0.26458 0.26458332,0.26458332 0 0 1 -0.2645833,-0.26458 0.26458332,0.26458332 0 0 1 0.2645833,-0.26459 0.26458332,0.26458332 0 0 1 0.2645833,0.26459 z m 0.260755,0.96764 a 0.26458332,0.26458332 0 0 1 -0.2645833,0.26458 0.26458332,0.26458332 0 0 1 -0.2645833,-0.26458 0.26458332,0.26458332 0 0 1 0.2645833,-0.26459 0.26458332,0.26458332 0 0 1 0.2645833,0.26459 z m 0.7085,0.7085 a 0.26458332,0.26458332 0 0 1 -0.2645833,0.26458 0.26458332,0.26458332 0 0 1 -0.2645833,-0.26458 0.26458332,0.26458332 0 0 1 0.2645833,-0.26459 0.26458332,0.26458332 0 0 1 0.2645833,0.26459 z m 0.967642,0.26074 a 0.26458332,0.26458332 0 0 1 -0.2645833,0.26458 0.26458332,0.26458332 0 0 1 -0.2645833,-0.26458 0.26458332,0.26458332 0 0 1 0.2645833,-0.26459 0.26458332,0.26458332 0 0 1 0.2645833,0.26459 z m 0.967641,-0.26075 a 0.26458332,0.26458332 0 0 1 -0.2645833,0.26458 0.26458332,0.26458332 0 0 1 -0.2645833,-0.26458 0.26458332,0.26458332 0 0 1 0.2645833,-0.26459 0.26458332,0.26458332 0 0 1 0.2645833,0.26459 z m 0.708497,-0.7085 a 0.26458332,0.26458332 0 0 1 -0.2645833,0.26458 0.26458332,0.26458332 0 0 1 -0.2645833,-0.26458 0.26458332,0.26458332 0 0 1 0.2645833,-0.26459 0.26458332,0.26458332 0 0 1 0.2645833,0.26459 z M 6.8791668,290.3854 a 0.26458332,0.26458332 0 0 0 -0.2645833,-0.26458 0.26458332,0.26458332 0 0 0 -0.2645833,0.26458 0.26458332,0.26458332 0 0 0 0.2645833,0.26459 0.26458332,0.26458332 0 0 0 0.2645833,-0.26459 z" />
    </g>
  </g>
</svg>
